# Blender 4.4.3
# www.blender.org
mtllib level1.mtl
o Plane
v -2.014142 0.500000 2.014142
v 2.000000 0.500000 2.020000
v -2.000000 0.500000 -2.020000
v 2.000000 0.500000 -2.020000
v -2.020000 0.500000 0.000000
v -2.020000 0.500000 0.400000
v -2.020000 0.500000 0.800000
v -2.020000 0.500000 1.200000
v -2.020000 0.500000 1.600000
v -1.600000 0.500000 2.020000
v -1.200000 0.500000 2.020000
v -0.414142 0.500000 2.014142
v 0.000000 0.500000 2.020000
v 0.400000 0.500000 2.020000
v 0.800000 0.500000 2.020000
v 1.200000 0.500000 2.020000
v 1.600000 0.500000 2.020000
v 2.020000 0.500000 1.200000
v 2.020000 0.500000 0.800000
v 2.020000 0.500000 0.400000
v 2.020000 0.500000 0.000000
v 2.020000 0.500000 -0.400000
v 2.020000 0.500000 -0.800000
v 2.014142 0.500000 -1.214142
v 1.600000 0.500000 -2.020000
v 1.200000 0.500000 -2.020000
v 0.000000 0.500000 -2.020000
v -0.400000 0.500000 -2.020000
v -0.800000 0.500000 -2.020000
v -1.200000 0.500000 -2.020000
v -1.600000 0.500000 -2.020000
v -1.220000 0.500000 1.200000
v -1.220000 0.500000 0.800000
v -1.220000 0.500000 0.400000
v -1.220000 0.500000 0.000000
v -1.220000 0.500000 -0.400000
v -1.220000 0.500000 -0.800000
v -1.214142 0.500000 -1.214142
v -0.800000 0.500000 -1.220000
v -0.420000 0.500000 1.600000
v -0.420000 0.500000 1.200000
v -0.420000 0.500000 0.800000
v -0.417889 0.500000 0.391056
v -0.420000 0.500000 0.000000
v -0.416330 0.504083 -0.391835
v -0.414142 0.507071 -0.800000
v -0.408165 0.504083 -1.216330
v 0.000000 0.500000 0.380000
v 0.000000 0.507071 -0.385858
v 0.000000 0.510000 -0.800000
v 0.000000 0.507071 -1.214142
v 0.420000 0.500000 1.200000
v 0.420000 0.500000 0.800000
v 0.414142 0.500000 0.385858
v 0.414142 0.507071 -0.400000
v 0.414142 0.507071 -0.800000
v 0.411547 0.505773 -1.211547
v 0.800000 0.500000 -0.420000
v 1.220000 0.500000 1.200000
v 1.220000 0.500000 0.800000
v 1.220000 0.500000 0.400000
v 1.220000 0.500000 0.000000
v 1.214142 0.500000 -0.414142
v 1.200000 0.500000 -1.220000
v 1.600000 0.500000 -1.220000
v 2.000000 0.007071 2.014142
v -2.000000 0.007071 -2.014142
v -2.020000 0.000000 0.000000
v -2.020000 0.000000 0.400000
v -2.020000 0.000000 0.800000
v -2.020000 0.000000 1.200000
v -2.020000 0.000000 1.600000
v -1.600000 0.000000 2.020000
v -1.200000 0.000000 2.020000
v -0.414142 0.000000 2.014142
v 0.000000 0.000000 2.020000
v 0.400000 0.000000 2.020000
v 0.800000 0.000000 2.020000
v 1.200000 0.000000 2.020000
v 1.600000 0.000000 2.020000
v 2.020000 0.000000 1.200000
v 2.020000 0.000000 0.800000
v 2.020000 0.000000 0.400000
v 2.020000 0.000000 0.000000
v 2.020000 0.000000 -0.400000
v 2.020000 0.000000 -0.800000
v 2.014142 0.000000 -1.214142
v 1.600000 0.000000 -2.020000
v 1.200000 0.000000 -2.020000
v 0.000000 0.000000 -2.020000
v -0.400000 0.000000 -2.020000
v -0.800000 0.000000 -2.020000
v -1.200000 0.000000 -2.020000
v -1.600000 0.000000 -2.020000
v -1.220000 0.000000 1.200000
v -1.220000 0.000000 0.800000
v -1.220000 0.000000 0.400000
v -1.220000 0.000000 0.000000
v -1.220000 0.000000 -0.400000
v -1.220000 0.000000 -0.800000
v -1.214142 0.000000 -1.214142
v -0.800000 0.000000 -1.220000
v -0.420000 0.000000 1.600000
v -0.420000 0.000000 1.200000
v -0.420000 0.000000 0.800000
v -0.417889 0.000000 0.391056
v -0.420000 0.000000 0.000000
v -0.416330 -0.004082 -0.391835
v -0.414142 -0.007071 -0.800000
v -0.408165 -0.004082 -1.216330
v 0.000000 0.000000 0.380000
v 0.000000 -0.007071 -0.385858
v 0.000000 -0.010000 -0.800000
v 0.000000 -0.007071 -1.214142
v 0.420000 0.000000 1.200000
v 0.420000 0.000000 0.800000
v 0.414142 0.000000 0.385858
v 0.414142 -0.007071 -0.400000
v 0.414142 -0.007071 -0.800000
v 0.411547 -0.005774 -1.211547
v 0.800000 0.000000 -0.420000
v 1.220000 0.000000 1.200000
v 1.220000 0.000000 0.800000
v 1.220000 0.000000 0.400000
v 1.220000 0.000000 0.000000
v 1.214142 0.000000 -0.414142
v 1.200000 0.000000 -1.220000
v 1.600000 0.000000 -1.220000
v -2.011547 0.005774 2.011547
v 2.000000 0.007071 -2.014142
v -2.000000 0.500000 2.000000
v 2.000000 0.500000 2.000000
v -2.000000 0.500000 -2.000000
v 2.000000 0.500000 -2.000000
v -2.000000 0.500000 0.000000
v -2.000000 0.500000 0.400000
v -2.000000 0.500000 0.800000
v -2.000000 0.500000 1.200000
v -2.000000 0.500000 1.600000
v -1.600000 0.500000 2.000000
v -1.200000 0.500000 2.000000
v -0.400000 0.500000 2.000000
v 0.000000 0.500000 2.000000
v 0.400000 0.500000 2.000000
v 0.800000 0.500000 2.000000
v 1.200000 0.500000 2.000000
v 1.600000 0.500000 2.000000
v 2.000000 0.500000 1.200000
v 2.000000 0.500000 0.800000
v 2.000000 0.500000 0.400000
v 2.000000 0.500000 0.000000
v 2.000000 0.500000 -0.400000
v 2.000000 0.500000 -0.800000
v 2.000000 0.500000 -1.200000
v 1.600000 0.500000 -2.000000
v 1.200000 0.500000 -2.000000
v 0.000000 0.500000 -2.000000
v -0.400000 0.500000 -2.000000
v -0.800000 0.500000 -2.000000
v -1.200000 0.500000 -2.000000
v -1.600000 0.500000 -2.000000
v -1.200000 0.500000 1.200000
v -1.200000 0.500000 0.800000
v -1.200000 0.500000 0.400000
v -1.200000 0.500000 0.000000
v -1.200000 0.500000 -0.400000
v -1.200000 0.500000 -0.800000
v -1.200000 0.500000 -1.200000
v -0.800000 0.500000 -1.200000
v -0.400000 0.500000 1.600000
v -0.400000 0.500000 1.200000
v -0.400000 0.500000 0.800000
v -0.400000 0.500000 0.400000
v -0.400000 0.500000 0.000000
v -0.400000 0.500000 -0.400000
v -0.400000 0.500000 -0.800000
v -0.400000 0.500000 -1.200000
v 0.000000 0.500000 0.400000
v 0.000000 0.500000 -0.400000
v 0.000000 0.500000 -0.800000
v 0.000000 0.500000 -1.200000
v 0.400000 0.500000 1.200000
v 0.400000 0.500000 0.800000
v 0.400000 0.500000 0.400000
v 0.400000 0.500000 -0.400000
v 0.400000 0.500000 -0.800000
v 0.400000 0.500000 -1.200000
v 0.800000 0.500000 -0.400000
v 1.200000 0.500000 1.200000
v 1.200000 0.500000 0.800000
v 1.200000 0.500000 0.400000
v 1.200000 0.500000 0.000000
v 1.200000 0.500000 -0.400000
v 1.200000 0.500000 -1.200000
v 1.600000 0.500000 -1.200000
v 2.000000 0.000000 2.000000
v -2.000000 0.000000 -2.000000
v -2.000000 0.000000 0.000000
v -2.000000 0.000000 0.400000
v -2.000000 0.000000 0.800000
v -2.000000 0.000000 1.200000
v -2.000000 0.000000 1.600000
v -1.600000 0.000000 2.000000
v -1.200000 0.000000 2.000000
v -0.400000 0.000000 2.000000
v 0.000000 0.000000 2.000000
v 0.400000 0.000000 2.000000
v 0.800000 0.000000 2.000000
v 1.200000 0.000000 2.000000
v 1.600000 0.000000 2.000000
v 2.000000 0.000000 1.200000
v 2.000000 0.000000 0.800000
v 2.000000 0.000000 0.400000
v 2.000000 0.000000 0.000000
v 2.000000 0.000000 -0.400000
v 2.000000 0.000000 -0.800000
v 2.000000 0.000000 -1.200000
v 1.600000 0.000000 -2.000000
v 1.200000 0.000000 -2.000000
v 0.000000 0.000000 -2.000000
v -0.400000 0.000000 -2.000000
v -0.800000 0.000000 -2.000000
v -1.200000 0.000000 -2.000000
v -1.600000 0.000000 -2.000000
v -1.200000 0.000000 1.200000
v -1.200000 0.000000 0.800000
v -1.200000 0.000000 0.400000
v -1.200000 0.000000 0.000000
v -1.200000 0.000000 -0.400000
v -1.200000 0.000000 -0.800000
v -1.200000 0.000000 -1.200000
v -0.800000 0.000000 -1.200000
v -0.400000 0.000000 1.600000
v -0.400000 0.000000 1.200000
v -0.400000 0.000000 0.800000
v -0.400000 0.000000 0.400000
v -0.400000 0.000000 0.000000
v -0.400000 0.000000 -0.400000
v -0.400000 0.000000 -0.800000
v -0.400000 0.000000 -1.200000
v 0.000000 0.000000 0.400000
v 0.000000 0.000000 -0.400000
v 0.000000 0.000000 -0.800000
v 0.000000 0.000000 -1.200000
v 0.400000 0.000000 1.200000
v 0.400000 0.000000 0.800000
v 0.400000 0.000000 0.400000
v 0.400000 0.000000 -0.400000
v 0.400000 0.000000 -0.800000
v 0.400000 0.000000 -1.200000
v 0.800000 0.000000 -0.400000
v 1.200000 0.000000 1.200000
v 1.200000 0.000000 0.800000
v 1.200000 0.000000 0.400000
v 1.200000 0.000000 0.000000
v 1.200000 0.000000 -0.400000
v 1.200000 0.000000 -1.200000
v 1.600000 0.000000 -1.200000
v -2.000000 0.000000 2.000000
v 2.000000 0.000000 -2.000000
vn -0.0072 0.9999 0.0072
vn -0.0072 0.9999 -0.0072
vn 0.0036 1.0000 0.0036
vn 0.0051 1.0000 -0.0051
vn -0.0072 -0.9999 0.0072
vn -0.0072 -0.9999 -0.0072
vn 0.0036 -1.0000 0.0036
vn 0.0051 -1.0000 -0.0051
vn -0.0144 -0.0000 0.9999
vn -1.0000 -0.0000 -0.0000
vn 0.0074 -0.0059 1.0000
vn -0.0074 -0.0059 -1.0000
vn 0.0054 -0.0000 -1.0000
vn 0.0141 -0.0000 -0.9999
vn 0.0341 -0.0000 0.9994
vn -0.9999 -0.0000 -0.0141
vn -0.9999 -0.0000 0.0141
vn 0.0063 -0.0000 -1.0000
vn -0.0173 -0.0027 0.9998
vn -0.0518 -0.0000 -0.9987
vn -0.0000 -0.0000 1.0000
vn -1.0000 -0.0000 -0.0052
vn -0.0141 -0.0000 0.9999
vn -0.0000 -0.0000 -1.0000
vn -1.0000 -0.0000 0.0054
vn -1.0000 -0.0000 -0.0094
vn -1.0000 -0.0000 -0.0054
vn -0.9999 -0.0000 -0.0144
vn 1.0000 -0.0000 -0.0000
vn 0.9999 -0.0000 -0.0141
vn 1.0000 -0.0000 -0.0063
vn 0.0074 -0.0059 -1.0000
vn -0.0141 -0.0000 -0.9999
vn 0.0094 -0.0000 -1.0000
vn -0.0264 -0.0000 -0.9997
vn -0.9998 -0.0027 0.0173
vn -0.0002 1.0000 0.0002
vn -0.0000 -1.0000 -0.0000
vn -0.0000 1.0000 -0.0000
vn 0.1129 0.9936 0.0056
vn -0.0056 0.9936 0.1129
vn 0.0172 0.9388 0.3441
vn 0.0101 -0.9792 0.2028
vn -0.0101 -0.9792 -0.2028
vn 0.1129 -0.9936 0.0056
vn -0.0056 -0.9936 0.1129
vn 0.0172 -0.9388 0.3441
vn -0.1769 -0.9842 0.0088
vn -0.0088 -0.9842 0.1769
vn 0.0101 -0.9792 -0.2028
vn -0.7436 -0.6687 -0.0012
vn -0.0000 -0.8944 0.4472
vn -0.0000 -0.8944 -0.4472
vt 0.400000 0.600000
vt 0.500000 0.600000
vt 0.500000 0.700000
vt 0.400000 0.700000
vt 0.500000 0.800000
vt 0.400000 0.800000
vt 0.600000 0.600000
vt 0.600000 0.700000
vt 0.600000 0.800000
vt 0.000000 0.000000
vt 1.000000 0.000000
vt 1.000000 1.000000
vt 0.000000 1.000000
s 0
f 45/1/1 49/2/1 50/3/1 46/4/1
f 46/4/2 50/3/2 51/5/2 47/6/2
f 49/2/3 55/7/3 56/8/3 50/3/3
f 50/3/4 56/8/4 57/9/4 51/5/4
f 108/1/5 109/4/5 113/3/5 112/2/5
f 109/4/6 110/6/6 114/5/6 113/3/6
f 112/2/7 113/3/7 119/8/7 118/7/7
f 113/3/8 114/5/8 120/9/8 119/8/8
f 45/1/9 108/1/9 112/2/9 49/2/9
f 33/10/10 34/10/10 97/10/10 96/10/10
f 17/10/11 80/10/11 66/10/11 2/10/11
f 34/10/10 35/10/10 98/10/10 97/10/10
f 31/10/12 94/10/12 67/10/12 3/10/12
f 51/5/13 114/5/13 110/6/13 47/6/13
f 35/10/10 36/10/10 99/10/10 98/10/10
f 5/10/10 68/10/10 69/10/10 6/10/10
f 54/10/14 117/10/14 111/10/14 48/10/14
f 36/10/10 37/10/10 100/10/10 99/10/10
f 6/10/10 69/10/10 70/10/10 7/10/10
f 49/2/15 112/2/15 118/7/15 55/7/15
f 37/10/16 38/10/16 101/10/16 100/10/16
f 7/10/10 70/10/10 71/10/10 8/10/10
f 12/10/17 40/10/17 103/10/17 75/10/17
f 8/10/10 71/10/10 72/10/10 9/10/10
f 57/9/18 120/9/18 114/5/18 51/5/18
f 40/10/10 41/10/10 104/10/10 103/10/10
f 1/10/19 129/10/19 73/10/19 10/10/19
f 58/10/20 121/10/20 118/10/20 55/10/20
f 41/10/10 42/10/10 105/10/10 104/10/10
f 10/10/21 73/10/21 74/10/21 11/10/21
f 63/10/14 126/10/14 121/10/14 58/10/14
f 42/10/22 43/10/22 106/10/22 105/10/22
f 12/10/23 75/10/23 76/10/23 13/10/23
f 65/10/24 128/10/24 127/10/24 64/10/24
f 43/10/25 44/10/25 107/10/25 106/10/25
f 13/10/21 76/10/21 77/10/21 14/10/21
f 24/10/14 87/10/14 128/10/14 65/10/14
f 44/10/26 45/10/26 108/10/26 107/10/26
f 14/10/21 77/10/21 78/10/21 15/10/21
f 46/4/27 109/4/27 108/1/27 45/1/27
f 15/10/21 78/10/21 79/10/21 16/10/21
f 47/6/28 110/6/28 109/4/28 46/4/28
f 16/10/21 79/10/21 80/10/21 17/10/21
f 18/10/29 81/10/29 82/10/29 19/10/29
f 19/10/29 82/10/29 83/10/29 20/10/29
f 52/10/29 115/10/29 116/10/29 53/10/29
f 20/10/29 83/10/29 84/10/29 21/10/29
f 53/10/30 116/10/30 117/10/30 54/10/30
f 21/10/29 84/10/29 85/10/29 22/10/29
f 55/7/29 118/7/29 119/8/29 56/8/29
f 22/10/29 85/10/29 86/10/29 23/10/29
f 56/8/31 119/8/31 120/9/31 57/9/31
f 23/10/30 86/10/30 87/10/30 24/10/30
f 59/10/29 122/10/29 123/10/29 60/10/29
f 4/10/32 130/10/32 88/10/32 25/10/32
f 60/10/29 123/10/29 124/10/29 61/10/29
f 25/10/24 88/10/24 89/10/24 26/10/24
f 61/10/29 124/10/29 125/10/29 62/10/29
f 27/10/24 90/10/24 91/10/24 28/10/24
f 62/10/30 125/10/30 126/10/30 63/10/30
f 28/10/24 91/10/24 92/10/24 29/10/24
f 39/10/33 102/10/33 101/10/33 38/10/33
f 29/10/24 92/10/24 93/10/24 30/10/24
f 47/10/34 110/10/34 102/10/34 39/10/34
f 30/10/24 93/10/24 94/10/24 31/10/24
f 48/10/35 111/10/35 106/10/35 43/10/35
f 32/10/10 33/10/10 96/10/10 95/10/10
f 9/10/36 72/10/36 129/10/36 1/10/36
f 129/10/37 66/11/37 130/12/37 67/13/37
f 175/1/38 176/4/38 180/3/38 179/2/38
f 176/4/38 177/6/38 181/5/38 180/3/38
f 179/2/38 180/3/38 186/8/38 185/7/38
f 180/3/38 181/5/38 187/9/38 186/8/38
f 238/1/39 242/2/39 243/3/39 239/4/39
f 239/4/39 243/3/39 244/5/39 240/6/39
f 242/2/39 248/7/39 249/8/39 243/3/39
f 243/3/39 249/8/39 250/9/39 244/5/39
f 175/1/24 179/2/24 242/2/24 238/1/24
f 163/10/29 226/10/29 227/10/29 164/10/29
f 147/10/24 132/10/24 196/10/24 210/10/24
f 164/10/29 227/10/29 228/10/29 165/10/29
f 161/10/21 133/10/21 197/10/21 224/10/21
f 181/5/21 177/6/21 240/6/21 244/5/21
f 165/10/29 228/10/29 229/10/29 166/10/29
f 135/10/29 136/10/29 199/10/29 198/10/29
f 184/10/21 178/10/21 241/10/21 247/10/21
f 166/10/29 229/10/29 230/10/29 167/10/29
f 136/10/29 137/10/29 200/10/29 199/10/29
f 179/2/24 185/7/24 248/7/24 242/2/24
f 167/10/29 230/10/29 231/10/29 168/10/29
f 137/10/29 138/10/29 201/10/29 200/10/29
f 142/10/29 205/10/29 233/10/29 170/10/29
f 138/10/29 139/10/29 202/10/29 201/10/29
f 187/9/21 181/5/21 244/5/21 250/9/21
f 170/10/29 233/10/29 234/10/29 171/10/29
f 131/10/24 140/10/24 203/10/24 259/10/24
f 188/10/21 185/10/21 248/10/21 251/10/21
f 171/10/29 234/10/29 235/10/29 172/10/29
f 140/10/24 141/10/24 204/10/24 203/10/24
f 193/10/21 188/10/21 251/10/21 256/10/21
f 172/10/29 235/10/29 236/10/29 173/10/29
f 142/10/24 143/10/24 206/10/24 205/10/24
f 195/10/21 194/10/21 257/10/21 258/10/21
f 173/10/29 236/10/29 237/10/29 174/10/29
f 143/10/24 144/10/24 207/10/24 206/10/24
f 154/10/21 195/10/21 258/10/21 217/10/21
f 174/10/29 237/10/29 238/10/29 175/10/29
f 144/10/24 145/10/24 208/10/24 207/10/24
f 176/4/29 175/1/29 238/1/29 239/4/29
f 145/10/24 146/10/24 209/10/24 208/10/24
f 177/6/29 176/4/29 239/4/29 240/6/29
f 146/10/24 147/10/24 210/10/24 209/10/24
f 148/10/10 149/10/10 212/10/10 211/10/10
f 149/10/10 150/10/10 213/10/10 212/10/10
f 182/10/10 183/10/10 246/10/10 245/10/10
f 150/10/10 151/10/10 214/10/10 213/10/10
f 183/10/10 184/10/10 247/10/10 246/10/10
f 151/10/10 152/10/10 215/10/10 214/10/10
f 185/7/10 186/8/10 249/8/10 248/7/10
f 152/10/10 153/10/10 216/10/10 215/10/10
f 186/8/10 187/9/10 250/9/10 249/8/10
f 153/10/10 154/10/10 217/10/10 216/10/10
f 189/10/10 190/10/10 253/10/10 252/10/10
f 134/10/21 155/10/21 218/10/21 260/10/21
f 190/10/10 191/10/10 254/10/10 253/10/10
f 155/10/21 156/10/21 219/10/21 218/10/21
f 191/10/10 192/10/10 255/10/10 254/10/10
f 157/10/21 158/10/21 221/10/21 220/10/21
f 192/10/10 193/10/10 256/10/10 255/10/10
f 158/10/21 159/10/21 222/10/21 221/10/21
f 169/10/21 168/10/21 231/10/21 232/10/21
f 159/10/21 160/10/21 223/10/21 222/10/21
f 177/10/21 169/10/21 232/10/21 240/10/21
f 160/10/21 161/10/21 224/10/21 223/10/21
f 178/10/21 173/10/21 236/10/21 241/10/21
f 162/10/29 225/10/29 226/10/29 163/10/29
f 139/10/29 131/10/29 259/10/29 202/10/29
f 259/10/38 197/13/38 260/12/38 196/11/38
f 9/10/39 1/10/39 131/10/39 139/10/39
f 17/10/39 2/10/39 132/10/39 147/10/39
f 31/10/39 3/10/39 133/10/39 161/10/39
f 5/10/39 6/10/39 136/10/39 135/10/39
f 6/10/39 7/10/39 137/10/39 136/10/39
f 7/10/39 8/10/39 138/10/39 137/10/39
f 8/10/39 9/10/39 139/10/39 138/10/39
f 1/10/39 10/10/39 140/10/39 131/10/39
f 10/10/39 11/10/39 141/10/39 140/10/39
f 12/10/39 13/10/39 143/10/39 142/10/39
f 13/10/39 14/10/39 144/10/39 143/10/39
f 14/10/39 15/10/39 145/10/39 144/10/39
f 15/10/39 16/10/39 146/10/39 145/10/39
f 16/10/39 17/10/39 147/10/39 146/10/39
f 18/10/39 19/10/39 149/10/39 148/10/39
f 19/10/39 20/10/39 150/10/39 149/10/39
f 20/10/39 21/10/39 151/10/39 150/10/39
f 21/10/39 22/10/39 152/10/39 151/10/39
f 22/10/39 23/10/39 153/10/39 152/10/39
f 23/10/39 24/10/39 154/10/39 153/10/39
f 4/10/39 25/10/39 155/10/39 134/10/39
f 25/10/39 26/10/39 156/10/39 155/10/39
f 27/10/39 28/10/39 158/10/39 157/10/39
f 28/10/39 29/10/39 159/10/39 158/10/39
f 29/10/39 30/10/39 160/10/39 159/10/39
f 30/10/39 31/10/39 161/10/39 160/10/39
f 33/10/39 32/10/39 162/10/39 163/10/39
f 34/10/39 33/10/39 163/10/39 164/10/39
f 35/10/39 34/10/39 164/10/39 165/10/39
f 36/10/39 35/10/39 165/10/39 166/10/39
f 37/10/39 36/10/39 166/10/39 167/10/39
f 38/10/39 37/10/39 167/10/39 168/10/39
f 40/10/39 12/10/39 142/10/39 170/10/39
f 41/10/39 40/10/39 170/10/39 171/10/39
f 42/10/39 41/10/39 171/10/39 172/10/39
f 43/10/39 42/10/39 172/10/39 173/10/39
f 44/10/39 43/10/39 173/10/39 174/10/39
f 45/10/40 44/10/40 174/10/40 175/10/40
f 52/10/39 53/10/39 183/10/39 182/10/39
f 53/10/39 54/10/39 184/10/39 183/10/39
f 59/10/39 60/10/39 190/10/39 189/10/39
f 60/10/39 61/10/39 191/10/39 190/10/39
f 61/10/39 62/10/39 192/10/39 191/10/39
f 62/10/39 63/10/39 193/10/39 192/10/39
f 39/10/39 38/10/39 168/10/39 169/10/39
f 47/10/41 39/10/41 169/10/41 177/10/41
f 48/10/39 43/10/39 173/10/39 178/10/39
f 54/10/39 48/10/39 178/10/39 184/10/39
f 58/10/42 55/10/42 185/10/42 188/10/42
f 63/10/39 58/10/39 188/10/39 193/10/39
f 65/10/39 64/10/39 194/10/39 195/10/39
f 24/10/39 65/10/39 195/10/39 154/10/39
f 66/10/43 80/10/43 210/10/43 196/10/43
f 67/10/44 94/10/44 224/10/44 197/10/44
f 69/10/38 68/10/38 198/10/38 199/10/38
f 70/10/38 69/10/38 199/10/38 200/10/38
f 71/10/38 70/10/38 200/10/38 201/10/38
f 72/10/38 71/10/38 201/10/38 202/10/38
f 74/10/38 73/10/38 203/10/38 204/10/38
f 76/10/38 75/10/38 205/10/38 206/10/38
f 77/10/38 76/10/38 206/10/38 207/10/38
f 78/10/38 77/10/38 207/10/38 208/10/38
f 79/10/38 78/10/38 208/10/38 209/10/38
f 80/10/38 79/10/38 209/10/38 210/10/38
f 82/10/38 81/10/38 211/10/38 212/10/38
f 83/10/38 82/10/38 212/10/38 213/10/38
f 84/10/38 83/10/38 213/10/38 214/10/38
f 85/10/38 84/10/38 214/10/38 215/10/38
f 86/10/38 85/10/38 215/10/38 216/10/38
f 87/10/38 86/10/38 216/10/38 217/10/38
f 89/10/38 88/10/38 218/10/38 219/10/38
f 91/10/38 90/10/38 220/10/38 221/10/38
f 92/10/38 91/10/38 221/10/38 222/10/38
f 93/10/38 92/10/38 222/10/38 223/10/38
f 94/10/38 93/10/38 223/10/38 224/10/38
f 95/10/38 96/10/38 226/10/38 225/10/38
f 96/10/38 97/10/38 227/10/38 226/10/38
f 97/10/38 98/10/38 228/10/38 227/10/38
f 98/10/38 99/10/38 229/10/38 228/10/38
f 99/10/38 100/10/38 230/10/38 229/10/38
f 100/10/38 101/10/38 231/10/38 230/10/38
f 75/10/38 103/10/38 233/10/38 205/10/38
f 103/10/38 104/10/38 234/10/38 233/10/38
f 104/10/38 105/10/38 235/10/38 234/10/38
f 105/10/38 106/10/38 236/10/38 235/10/38
f 106/10/38 107/10/38 237/10/38 236/10/38
f 107/10/45 108/10/45 238/10/45 237/10/45
f 116/10/38 115/10/38 245/10/38 246/10/38
f 117/10/38 116/10/38 246/10/38 247/10/38
f 123/10/38 122/10/38 252/10/38 253/10/38
f 124/10/38 123/10/38 253/10/38 254/10/38
f 125/10/38 124/10/38 254/10/38 255/10/38
f 126/10/38 125/10/38 255/10/38 256/10/38
f 101/10/38 102/10/38 232/10/38 231/10/38
f 102/10/46 110/10/46 240/10/46 232/10/46
f 106/10/38 111/10/38 241/10/38 236/10/38
f 111/10/38 117/10/38 247/10/38 241/10/38
f 118/10/47 121/10/47 251/10/47 248/10/47
f 121/10/38 126/10/38 256/10/38 251/10/38
f 127/10/38 128/10/38 258/10/38 257/10/38
f 128/10/38 87/10/38 217/10/38 258/10/38
f 2/10/29 66/10/29 196/10/29 132/10/29
f 3/10/10 67/10/10 197/10/10 133/10/10
f 68/10/24 5/10/24 135/10/24 198/10/24
f 11/10/29 74/10/29 204/10/29 141/10/29
f 64/10/10 127/10/10 257/10/10 194/10/10
f 81/10/21 18/10/21 148/10/21 211/10/21
f 115/10/21 52/10/21 182/10/21 245/10/21
f 122/10/21 59/10/21 189/10/21 252/10/21
f 26/10/10 89/10/10 219/10/10 156/10/10
f 90/10/29 27/10/29 157/10/29 220/10/29
f 32/10/21 95/10/21 225/10/21 162/10/21
f 129/10/48 72/10/48 202/10/48 259/10/48
f 73/10/49 129/10/49 259/10/49 203/10/49
f 88/10/50 130/10/50 260/10/50 218/10/50
f 130/10/29 4/10/29 134/10/29 260/10/29
f 129/10/51 67/13/51 197/13/51 259/10/51
f 66/11/52 129/10/52 259/10/52 196/11/52
f 130/12/29 66/11/29 196/11/29 260/12/29
f 67/13/53 130/12/53 260/12/53 197/13/53
